<svg width="37" height="34" viewBox="0 0 37 34" fill="none" xmlns="http://www.w3.org/2000/svg">
<rect width="37" height="34" rx="5" fill="#FFBF00"/>
<path d="M16.738 22.038L20.284 16.584L20.554 16.17C20.986 15.498 21.304 14.94 21.508 14.496C21.724 14.04 21.832 13.548 21.832 13.02C21.832 12.552 21.742 12.198 21.562 11.958C21.382 11.706 21.118 11.58 20.77 11.58C20.278 11.58 19.936 11.772 19.744 12.156C19.552 12.54 19.456 13.068 19.456 13.74V14.406H16.738V13.686C16.738 12.318 17.056 11.238 17.692 10.446C18.34 9.642 19.348 9.24 20.716 9.24C21.976 9.24 22.936 9.576 23.596 10.248C24.256 10.908 24.586 11.85 24.586 13.074C24.586 13.818 24.448 14.49 24.172 15.09C23.896 15.678 23.464 16.41 22.876 17.286L22.678 17.592L19.87 21.804H24.19V24H16.738V22.038Z" fill="#F1F0F0"/>
</svg>
