<svg width="37" height="34" viewBox="0 0 37 34" fill="none" xmlns="http://www.w3.org/2000/svg">
<rect width="37" height="34" rx="5" fill="#FFBF00"/>
<path d="M20.536 24.234C19.552 24.234 18.784 24.06 18.232 23.712C17.68 23.352 17.302 22.848 17.098 22.2C16.894 21.552 16.792 20.742 16.792 19.77H19.492C19.492 20.61 19.57 21.222 19.726 21.606C19.882 21.978 20.188 22.164 20.644 22.164C21.004 22.164 21.268 22.044 21.436 21.804C21.604 21.564 21.706 21.234 21.742 20.814C21.79 20.394 21.814 19.8 21.814 19.032C21.814 18.144 21.73 17.484 21.562 17.052C21.406 16.608 21.076 16.386 20.572 16.386C19.924 16.386 19.51 16.824 19.33 17.7H16.936L17.134 9.42H23.83V11.814H19.402L19.258 15.036C19.426 14.832 19.714 14.664 20.122 14.532C20.53 14.388 20.962 14.316 21.418 14.316C22.414 14.316 23.164 14.718 23.668 15.522C24.184 16.326 24.442 17.454 24.442 18.906C24.442 20.058 24.34 21.018 24.136 21.786C23.932 22.542 23.542 23.142 22.966 23.586C22.402 24.018 21.592 24.234 20.536 24.234Z" fill="white"/>
</svg>
