<svg width="37" height="34" viewBox="0 0 37 34" fill="none" xmlns="http://www.w3.org/2000/svg">
<rect width="37" height="34" rx="5" fill="#FFBF00"/>
<path d="M20.608 24.252C19.216 24.252 18.214 23.868 17.602 23.1C16.99 22.332 16.684 21.246 16.684 19.842V19.338H19.456V19.824C19.468 20.568 19.558 21.102 19.726 21.426C19.894 21.75 20.2 21.912 20.644 21.912C21.088 21.912 21.388 21.75 21.544 21.426C21.7 21.09 21.778 20.55 21.778 19.806C21.778 19.026 21.658 18.45 21.418 18.078C21.19 17.694 20.77 17.496 20.158 17.484C20.134 17.472 19.972 17.466 19.672 17.466V15.432H20.104C20.74 15.432 21.178 15.264 21.418 14.928C21.658 14.592 21.778 14.04 21.778 13.272C21.778 12.648 21.688 12.186 21.508 11.886C21.34 11.586 21.034 11.436 20.59 11.436C20.158 11.436 19.864 11.598 19.708 11.922C19.552 12.246 19.468 12.726 19.456 13.362V14.01H16.684V13.218C16.684 11.946 17.026 10.962 17.71 10.266C18.394 9.57 19.354 9.222 20.59 9.222C21.838 9.222 22.804 9.558 23.488 10.23C24.172 10.902 24.514 11.868 24.514 13.128C24.514 13.956 24.34 14.658 23.992 15.234C23.656 15.81 23.218 16.17 22.678 16.314C23.902 16.77 24.514 17.916 24.514 19.752C24.514 21.156 24.202 22.26 23.578 23.064C22.954 23.856 21.964 24.252 20.608 24.252Z" fill="white"/>
</svg>
